<?xml version="1.0" encoding="iso-8859-1"?>
<!-- Generator: Adobe Illustrator 19.0.0, SVG Export Plug-In . SVG Version: 6.00 Build 0)  -->
<svg version="1.1" id="Layer_1" xmlns="http://www.w3.org/2000/svg" fill="white" xmlns:xlink="http://www.w3.org/1999/xlink" x="0px" y="0px"
	 viewBox="0 0 512 512" style="enable-background:new 0 0 512 512;" xml:space="preserve">
<g>
	<g>
		<path d="M102.759,43.526c-22.615-6.336-24.948-8.706-31.206-31.7C69.754,5.21,63.741,0.59,56.929,0.59S44.103,5.21,42.304,11.825
			c-6.259,22.996-8.591,25.366-31.205,31.701C4.564,45.357,0,51.407,0,58.239s4.564,12.883,11.099,14.712
			c22.614,6.335,24.947,8.706,31.205,31.701c1.799,6.615,7.814,11.235,14.625,11.235s12.825-4.62,14.624-11.235
			c6.258-22.995,8.591-25.365,31.206-31.701c6.535-1.831,11.099-7.881,11.099-14.713S109.294,45.356,102.759,43.526z M56.929,98.73
			c-7.332-26.164-14.214-33.034-40.26-40.491c26.046-7.455,32.928-14.325,40.26-40.491C64.26,43.913,71.142,50.784,97.19,58.239
			C71.143,65.694,64.26,72.563,56.929,98.73z"/>
	</g>
</g>
<g>
	<g>
		<path d="M501.822,448.813c-18.242-5.111-19.872-6.768-24.923-25.328c-1.652-6.063-7.167-10.296-13.413-10.296
			c-6.249,0-11.766,4.235-13.414,10.3c-5.049,18.557-6.679,20.215-24.925,25.326c-5.991,1.681-10.175,7.227-10.175,13.484
			c0,6.258,4.184,11.803,10.179,13.485c18.242,5.11,19.872,6.767,24.922,25.325c1.65,6.065,7.166,10.301,13.414,10.301
			c6.245,0,11.761-4.234,13.413-10.3c5.051-18.56,6.681-20.217,24.925-25.326C507.816,474.103,512,468.558,512,462.3
			C512,456.04,507.816,450.496,501.822,448.813z M463.485,491.096c-5.407-17.343-11.39-23.312-28.692-28.797
			c17.305-5.487,23.284-11.455,28.692-28.798c5.408,17.343,11.39,23.312,28.692,28.798
			C474.873,467.785,468.894,473.752,463.485,491.096z"/>
	</g>
</g>
<g>
	<g>
		<path d="M475.321,313.215l-34.51-53.102c-3.419-5.253-9.179-8.39-15.409-8.39h-8.736l9.487-11.651
			c6.99-8.582,8.025-20.376,2.819-29.98c-0.348-0.641-62.386-96.148-62.386-96.148c-4.941-7.6-13.265-12.136-22.264-12.136H234.027
			h-0.215H123.517c-9,0-17.322,4.537-22.265,12.139L39.99,208.205c-6.44,9.907-5.758,22.714,1.695,31.868l63.793,78.349
			c2.733,3.357,7.67,3.862,11.025,1.13c3.356-2.732,3.862-7.669,1.128-11.025l-62.237-76.438h98.695l65.291,201.404l-83.034-101.979
			c-2.732-3.356-7.669-3.861-11.025-1.13c-3.356,2.732-3.862,7.669-1.13,11.025l89.157,109.5c5.076,6.238,12.574,9.816,20.57,9.816
			c7.993,0,15.491-3.577,20.571-9.815l46.004-56.502l48.479,59.541c3.513,4.316,8.704,6.793,14.241,6.793s10.729-2.475,14.24-6.791
			l96.697-118.761C479.292,328.876,479.761,320.044,475.321,313.215z M309.885,267.397h38.827L329.3,297.267L309.885,267.397z
			 M319.953,311.648l-3.01,4.632h-49.134l27.578-42.429L319.953,311.648z M307.384,251.724l6.367-19.638h98.693l-15.989,19.638
			h-33.18h-0.121H307.384z M363.214,273.848l27.578,42.431h-55.157L363.214,273.848z M377.715,267.397h38.827l-19.414,29.868
			L377.715,267.397z M354.334,123.86l60.156,92.554H312.767l-9.292-14.298L354.334,123.86z M339.787,117.482l-45.659,70.253
			l-45.661-70.253H339.787z M219.372,117.482l-45.66,70.253l-45.661-70.253H219.372z M155.072,216.412H53.349l60.156-92.552
			l50.86,78.253L155.072,216.412z M170.565,232.086h55.133c4.328,0,7.837-3.509,7.837-7.837c0-4.328-3.509-7.837-7.837-7.837
			h-51.932l60.155-92.553l60.155,92.553h-37.03c-4.328,0-7.837,3.509-7.837,7.837c0,4.328,3.509,7.837,7.837,7.837h40.23
			l-7.66,23.628c-1.535,1.224-2.891,2.7-3.998,4.402l-34.511,53.098c-4.439,6.832-3.969,15.662,1.171,21.974l8.277,10.166
			l-26.634,82.16L170.565,232.086z M248.457,433.495l23.881-73.666l18.049,22.167L248.457,433.495z M269.853,331.953h45.904
			l30.369,93.677L269.853,331.953z M380.301,425.631l12.206-37.648c1.334-4.117-0.921-8.537-5.037-9.871
			c-4.116-1.335-8.537,0.921-9.871,5.037l-14.383,44.366l-30.98-95.563h61.96l-6.774,20.895c-1.334,4.117,0.921,8.537,5.037,9.871
			c0.804,0.26,1.617,0.385,2.419,0.385c3.306,0,6.379-2.109,7.453-5.422l8.34-25.729h45.906L380.301,425.631z M409.486,316.28
			l-3.01-4.633l24.567-37.797l27.578,42.43H409.486z"/>
	</g>
</g>
<g>
</g>
<g>
</g>
<g>
</g>
<g>
</g>
<g>
</g>
<g>
</g>
<g>
</g>
<g>
</g>
<g>
</g>
<g>
</g>
<g>
</g>
<g>
</g>
<g>
</g>
<g>
</g>
<g>
</g>
</svg>
